<?xml version="1.0" encoding="UTF-8" standalone="no"?>
<!DOCTYPE svg PUBLIC "-//W3C//DTD SVG 1.1//EN" "http://www.w3.org/Graphics/SVG/1.1/DTD/svg11.dtd">
<svg version="1.0" xmlns="http://www.w3.org/2000/svg" width="700.000000pt" height="700.000000pt" viewBox="0 0 700.000000 700.000000" preserveAspectRatio="xMidYMid meet">
	<metadata>
		Created by potrace 1.12, written by Peter Selinger 2001-2015
	</metadata>
	<g transform="translate(0.000000,700.000000) scale(0.100000,-0.100000)" fill="#000000" stroke="none">
		<path d="M3010 6991 c0 -17 31 -41 53 -41 12 0 43 -11 69 -25 28 -15 64 -25
87 -25 22 0 56 -7 75 -17 31 -14 45 -15 118 -5 112 16 138 15 138 -3 0 -17 -7
-18 -71 -15 -71 3 -74 -28 -4 -44 45 -10 174 -27 225 -29 26 -1 60 -11 81 -24
20 -13 49 -23 64 -23 18 0 40 -13 68 -43 39 -39 79 -61 150 -83 23 -7 33 -20
47 -63 24 -68 34 -79 77 -87 19 -4 46 -19 59 -34 14 -15 43 -33 66 -41 34 -11
44 -21 60 -57 11 -24 30 -48 44 -54 17 -8 23 -16 18 -27 -4 -9 -8 -29 -8 -46
-1 -29 1 -30 44 -33 53 -4 67 -14 75 -51 9 -43 73 -89 134 -97 28 -4 54 -11
58 -17 4 -6 7 -49 8 -95 2 -83 2 -85 -26 -101 -16 -9 -29 -21 -29 -28 0 -15
39 -43 62 -43 27 0 68 -22 68 -37 0 -8 -7 -24 -15 -37 -14 -21 -13 -25 6 -47
11 -13 27 -36 34 -50 8 -14 27 -32 43 -38 16 -7 48 -35 70 -62 35 -44 39 -54
35 -88 -5 -36 -3 -41 27 -56 47 -24 26 -37 -77 -46 -48 -4 -95 -10 -103 -13
-39 -15 -150 -23 -205 -14 -72 11 -135 48 -135 80 0 12 -26 65 -57 117 -65
107 -214 271 -275 302 -21 11 -38 23 -38 28 0 4 -21 22 -47 39 -27 17 -58 39
-70 48 -12 9 -41 20 -64 25 -23 6 -55 21 -71 34 -35 29 -122 36 -131 11 -9
-22 14 -35 77 -42 46 -6 60 -11 68 -29 10 -23 47 -45 73 -45 8 0 24 -13 36
-30 13 -16 37 -35 56 -41 52 -17 346 -322 372 -386 8 -20 24 -35 43 -42 37
-13 33 -31 -14 -54 -33 -16 -103 -17 -1119 -18 -1081 0 -1084 0 -1101 21 -9
11 -19 26 -21 33 -3 7 -15 0 -32 -20 -23 -29 -33 -33 -73 -33 -87 0 -115 44
-67 106 13 17 29 52 34 75 6 24 19 51 29 60 11 8 29 34 41 57 12 23 33 49 46
58 14 9 28 27 31 40 4 13 19 33 35 45 16 11 29 27 29 35 0 8 16 22 35 30 27
11 35 20 35 39 0 35 -43 35 -66 -1 -15 -23 -41 -49 -134 -137 -14 -13 -35 -29
-48 -36 -12 -6 -34 -30 -47 -51 -14 -23 -40 -46 -59 -54 -18 -7 -43 -30 -55
-49 -18 -30 -20 -39 -10 -61 9 -20 9 -35 1 -65 -14 -45 -27 -51 -128 -51 -40
0 -91 -7 -115 -16 -37 -13 -73 -15 -223 -10 -109 4 -184 10 -192 17 -21 18
-17 47 10 64 30 20 43 54 50 129 3 41 13 70 32 97 46 66 43 169 -4 152 -27
-10 -32 -25 -27 -68 6 -45 2 -53 -37 -78 -27 -17 -28 -20 -28 -112 0 -93 0
-94 -30 -115 -16 -12 -30 -28 -30 -35 0 -8 -10 -26 -23 -40 l-22 -27 -467 -1
c-368 -2 -470 -5 -480 -15 -15 -15 -15 -100 -10 -3303 2 -2023 -1 -1913 56
-1875 18 11 59 20 120 25 71 6 101 13 124 30 34 24 110 41 185 41 36 0 69 9
114 31 50 24 82 32 146 36 64 5 94 12 137 35 44 23 73 30 145 35 72 5 101 11
145 34 30 16 67 29 81 29 14 0 33 6 42 13 16 11 17 100 19 1219 l3 1207 26 28
c15 15 35 44 44 63 20 40 105 119 148 138 17 7 40 23 52 36 13 14 42 30 66 36
23 7 57 23 75 36 26 21 47 26 120 31 49 3 119 14 156 25 l66 19 74 -20 c41
-12 86 -21 101 -21 15 0 37 -10 48 -21 19 -19 21 -30 17 -97 -5 -65 -9 -78
-29 -94 -13 -10 -35 -29 -49 -43 -14 -13 -46 -33 -72 -44 -25 -11 -50 -26 -55
-34 -4 -8 -33 -27 -63 -42 -30 -14 -71 -35 -90 -45 -19 -11 -53 -20 -74 -20
-24 0 -56 -10 -82 -25 -52 -31 -165 -48 -254 -39 -55 5 -69 3 -88 -12 -22 -19
-23 -20 -7 -64 11 -32 18 -107 24 -255 5 -119 14 -223 20 -240 29 -72 43 -172
51 -360 7 -157 13 -213 28 -261 26 -78 42 -220 42 -371 0 -74 6 -139 15 -173
41 -151 47 -193 54 -390 6 -144 13 -217 23 -245 9 -22 21 -66 28 -97 6 -32 19
-65 28 -75 16 -17 127 -18 2433 -15 l2417 2 12 29 c18 44 20 5085 2 5103 -10
10 -129 12 -608 9 -671 -4 -636 -8 -649 71 -4 24 -20 72 -35 108 -17 40 -30
90 -33 129 -4 51 -10 68 -32 91 -17 18 -31 47 -36 76 -7 35 -18 56 -44 80 -19
17 -35 40 -35 51 0 30 -29 63 -56 63 -22 0 -24 3 -24 53 0 43 -6 63 -32 103
-27 41 -80 110 -106 136 -45 46 -163 153 -211 191 -34 27 -61 55 -61 62 0 8
-11 22 -25 33 -13 11 -30 31 -36 46 -7 14 -16 26 -21 26 -4 0 -25 16 -47 35
-26 23 -48 35 -68 35 -23 0 -32 6 -44 32 -10 22 -25 35 -54 45 -21 7 -48 22
-60 32 -11 10 -43 30 -72 44 -46 23 -60 26 -113 20 l-60 -6 -15 38 c-14 31
-20 36 -38 30 -63 -20 -71 -18 -106 25 -30 38 -37 42 -66 37 -38 -6 -72 13
-85 49 l-10 24 -475 0 c-286 0 -475 -4 -475 -9z m2089 -1013 c39 -24 151 -134
151 -148 0 -5 13 -24 29 -42 30 -34 191 -339 191 -362 0 -7 11 -35 25 -62 33
-65 32 -92 -2 -105 -31 -12 -133 -5 -163 11 -10 5 -24 26 -31 47 -6 20 -20 50
-29 67 -10 17 -23 55 -30 84 -7 28 -17 55 -22 58 -14 9 -80 154 -103 224 -9
30 -25 62 -35 70 -10 8 -25 37 -34 64 -9 28 -26 60 -37 72 -12 12 -18 27 -14
33 11 18 65 12 104 -11z m-69 -814 c10 -9 17 -45 21 -102 4 -51 18 -122 33
-172 24 -73 29 -110 35 -260 6 -130 12 -185 25 -215 28 -66 37 -122 46 -300 7
-141 13 -184 35 -249 22 -67 27 -107 34 -255 6 -128 13 -187 25 -216 28 -66
37 -130 45 -350 7 -187 10 -215 30 -260 27 -58 30 -120 9 -142 -13 -13 -24
-13 -69 -3 -34 8 -106 10 -194 8 -125 -4 -146 -7 -195 -30 -30 -15 -81 -30
-113 -33 -42 -5 -67 -15 -89 -34 -17 -14 -48 -35 -68 -46 -75 -40 -132 -90
-155 -136 -13 -25 -31 -51 -39 -58 -26 -22 -19 -64 17 -99 25 -24 49 -35 105
-47 92 -19 143 -19 268 0 54 8 129 15 166 15 57 0 71 4 98 26 17 15 52 31 78
35 32 6 53 17 66 34 10 14 30 32 45 40 29 16 80 63 129 119 31 36 32 41 32
124 0 48 1 587 3 1199 2 1031 3 1114 19 1129 12 13 40 18 100 22 68 3 92 9
134 33 43 24 68 30 145 36 77 5 103 11 145 35 41 23 68 29 144 35 75 5 104 12
146 35 42 22 72 29 141 34 68 5 102 13 149 35 69 33 146 39 182 13 l22 -15 0
-1793 c0 -1656 -1 -1795 -17 -1807 -13 -12 -279 -14 -1627 -17 -886 -2 -1630
0 -1653 3 -23 3 -59 18 -80 32 -21 14 -60 32 -88 39 -27 7 -61 22 -75 34 -14
11 -38 26 -55 33 -16 8 -36 26 -44 40 -8 15 -23 29 -33 33 -11 3 -28 25 -39
47 -10 23 -28 54 -40 69 -16 19 -23 45 -27 96 -8 113 5 195 39 244 16 24 29
51 29 61 0 10 16 35 35 55 19 20 54 58 76 85 23 26 46 47 52 47 5 0 29 18 53
40 24 22 50 40 57 40 8 0 31 14 52 30 21 17 44 30 52 30 8 0 30 15 49 34 23
22 50 37 75 41 26 5 45 15 56 31 9 14 30 32 47 41 27 14 85 70 209 202 20 23
37 46 37 53 0 7 14 33 31 58 l30 45 -3 142 c-3 132 -5 143 -26 166 -13 14 -30
46 -38 73 -8 26 -25 60 -38 74 -13 14 -29 35 -35 47 -6 12 -31 28 -59 37 -27
9 -59 28 -70 41 -18 20 -31 25 -69 25 -29 0 -81 13 -133 32 l-85 33 -1563 5
c-1374 4 -1564 7 -1572 20 -6 9 -10 283 -10 691 0 553 2 679 13 688 18 15 470
17 2812 13 1657 -3 1912 -5 1925 -18z"></path>
		<path d="M2800 6910 c-80 -6 -104 -12 -155 -39 -43 -23 -71 -32 -100 -30 -62
3 -65 1 -81 -36 -13 -32 -18 -35 -57 -35 -43 0 -67 -13 -67 -37 0 -22 83 -16
114 8 15 12 62 30 104 41 42 11 87 26 99 34 12 8 39 14 60 14 45 0 178 27 204
41 11 5 19 16 19 23 0 13 -24 28 -38 24 -4 0 -50 -4 -102 -8z"></path>
		<path d="M3288 6220 c-20 -11 -44 -30 -52 -42 -14 -20 -14 -24 -1 -37 13 -13
21 -13 69 2 42 14 56 23 66 47 22 52 -14 66 -82 30z"></path>
		<path d="M3496 6211 c-3 -5 1 -12 10 -15 21 -8 56 3 49 15 -8 12 -52 12 -59 0z"></path>
		<path d="M1717 6183 c-13 -13 -7 -32 8 -27 8 4 15 12 15 20 0 15 -12 19 -23 7z"></path>
		<path d="M3085 6160 c-4 -7 -3 -16 3 -22 14 -14 47 -6 47 12 0 18 -40 26 -50
10z"></path>
		<path d="M3810 6159 c-13 -8 -12 -11 4 -24 36 -27 130 -13 100 15 -15 13 -88
20 -104 9z"></path>
		<path d="M1646 6124 c-21 -21 -20 -34 3 -34 20 0 51 25 51 41 0 15 -37 10 -54
-7z"></path>
		<path d="M4020 6086 c0 -10 9 -16 21 -16 24 0 21 23 -4 28 -10 2 -17 -3 -17
-12z"></path>
		<path d="M2723 6070 c-31 -13 -29 -32 2 -25 14 3 36 7 50 10 14 3 25 10 25 15
0 12 -47 12 -77 0z"></path>
		<path d="M1560 6044 c-6 -14 -10 -29 -10 -33 0 -4 -13 -20 -30 -36 -18 -17
-30 -39 -30 -54 0 -33 -8 -43 -42 -58 -22 -10 -28 -19 -28 -45 0 -18 4 -39 9
-47 14 -21 38 2 52 49 7 23 21 42 34 48 13 6 28 27 35 49 7 21 26 53 41 71 38
43 39 82 4 82 -18 0 -28 -7 -35 -26z"></path>
		<path d="M3183 6010 c-67 -5 -83 -14 -64 -33 18 -18 487 -17 520 1 17 11 20
17 12 25 -13 12 -343 17 -468 7z"></path>
		<path d="M2384 5865 c-4 -9 -3 -19 0 -23 9 -8 42 12 39 24 -4 16 -33 16 -39
-1z"></path>
		<path d="M2730 5855 c-16 -20 -1 -39 26 -33 27 5 32 48 6 48 -11 0 -25 -7 -32
-15z"></path>
		<path d="M2612 5788 c-22 -22 -12 -29 35 -26 36 2 49 7 51 21 3 14 -4 17 -35
17 -22 0 -44 -5 -51 -12z"></path>
		<path d="M2528 5729 c-10 -5 -18 -18 -18 -27 0 -9 -15 -24 -33 -32 -39 -18
-51 -53 -16 -48 13 2 29 14 35 27 7 13 26 30 43 37 20 9 31 20 31 34 0 22 -15
25 -42 9z"></path>
		<path d="M2386 5588 c-11 -15 -13 -25 -6 -32 15 -15 44 6 48 33 4 28 -22 28
-42 -1z"></path>
		<path d="M2290 5458 c-40 -62 -57 -104 -47 -114 14 -14 47 10 57 40 6 19 20
42 30 51 21 19 28 85 10 85 -5 0 -28 -28 -50 -62z"></path>
	</g>
</svg>